<svg version="1.1" id="Layer_1" xmlns="http://www.w3.org/2000/svg" xmlns:xlink="http://www.w3.org/1999/xlink" x="0px" y="0px"
	 width="100%" viewBox="0 0 512 512" enable-background="new 0 0 512 512" xml:space="preserve">
<path fill="#ffffff" opacity="1.000000" stroke="none" 
	d="
M335.958588,339.382202 
	C335.124420,343.541351 331.889008,345.588379 329.311035,348.109558 
	C327.678497,349.706116 326.008148,349.099396 325.504517,347.076111 
	C324.762451,344.094940 323.135376,341.254669 324.378052,337.874451 
	C325.618591,334.500122 325.068634,331.012390 323.757721,327.409119 
	C319.794708,329.352112 315.916595,331.126221 312.166595,333.139008 
	C309.858459,334.377869 308.173523,334.220642 306.601166,332.019318 
	C305.542511,330.537170 303.917175,329.421783 303.020844,327.868073 
	C298.566010,320.145996 292.599701,320.646484 284.651520,322.287231 
	C276.068512,324.058990 272.364868,327.659729 271.378082,336.136414 
	C270.533508,343.391815 269.852631,343.316986 262.410706,343.314667 
	C257.577606,343.313141 252.741989,343.198486 247.912338,343.322601 
	C244.936996,343.399048 243.139084,342.351044 242.681915,339.286652 
	C242.535950,338.308197 241.920670,337.372406 241.895798,336.407410 
	C241.636459,326.345886 234.277176,324.151611 226.535034,321.291962 
	C218.606995,318.363647 213.926712,320.150604 209.441940,327.140930 
	C204.661758,334.591705 204.088516,334.247314 195.957184,330.071289 
	C191.957092,328.016968 188.052887,325.768280 184.001190,323.824493 
	C181.037155,322.402496 180.041931,320.362396 181.337555,317.387634 
	C185.641647,307.505371 184.336868,299.822601 174.869751,292.928497 
	C167.865662,287.828003 168.621582,286.789978 160.781342,290.377502 
	C149.251892,295.653107 149.243393,295.658447 142.337357,284.660309 
	C140.299545,281.415039 138.406097,278.076355 136.291595,274.883057 
	C134.934937,272.834198 135.012238,271.266632 137.036728,269.765839 
	C137.963165,269.079041 138.693634,268.131836 139.535110,267.325897 
	C144.941544,262.147583 148.295853,256.511627 143.865555,248.980408 
	C143.501450,248.361420 143.715637,247.402222 143.605103,245.777618 
	C150.785065,245.777618 157.712769,245.759644 164.640198,245.793518 
	C165.950714,245.799927 166.698074,246.732330 167.279556,247.807281 
	C171.650497,255.887589 178.622910,260.662018 188.055344,263.507385 
	C182.586700,265.589172 184.143417,268.266479 186.533005,270.987762 
	C197.048523,282.963013 209.420303,292.284760 224.632294,297.503448 
	C230.966354,299.676422 236.611572,297.668671 241.557678,291.562592 
	C242.693558,290.160339 243.460693,288.434448 246.016708,287.018341 
	C242.846863,296.685486 234.882278,303.639801 235.244492,314.068970 
	C243.304398,308.255280 246.851166,298.551086 253.943481,291.690796 
	C255.629059,293.928406 255.896133,296.096222 257.080475,297.924805 
	C262.077667,305.640320 269.537750,303.521759 276.095581,302.333221 
	C296.024841,298.721222 311.987915,288.001740 325.676025,273.355865 
	C328.946655,269.856384 325.391663,266.787903 326.356384,263.213196 
	C336.858124,262.082794 344.470215,256.505310 349.442688,247.234055 
	C350.330475,245.578766 351.878601,245.707901 353.363586,245.692413 
	C357.363037,245.650757 361.367950,245.767944 365.361328,245.599823 
	C370.592377,245.379608 373.459381,242.701691 374.775360,237.613998 
	C376.018646,232.807159 375.278107,228.031006 375.137970,223.212585 
	C374.861908,213.721222 374.771545,204.220856 374.824066,194.725449 
	C374.843262,191.255997 373.470978,189.543655 370.114838,190.120804 
	C355.932220,192.559677 345.755676,186.767319 337.651154,175.444992 
	C334.507629,171.053360 330.798279,166.724945 325.843628,164.072479 
	C321.184845,161.578384 316.324066,159.461533 311.711182,157.254776 
	C310.763672,154.496078 313.791016,153.880753 314.203033,151.476135 
	C311.183563,147.952759 306.885498,145.691513 302.808075,143.281601 
	C286.778656,133.807587 269.226715,131.338684 250.903931,131.991013 
	C232.135315,132.659195 215.268677,138.446243 200.526474,149.976471 
	C192.914825,155.929749 185.907501,162.654907 180.417969,170.709702 
	C177.588348,174.861603 178.673187,177.781128 183.639313,177.600266 
	C189.526413,177.385864 193.330414,181.011475 198.426437,182.931046 
	C196.486786,186.805664 193.919678,189.226425 189.626678,189.370529 
	C182.968521,189.594025 176.276611,190.360489 169.658676,189.945389 
	C148.969788,188.647644 140.371994,202.572708 139.449829,219.849167 
	C139.140884,225.637100 139.952774,231.483231 140.212738,237.304535 
	C140.264374,238.460571 140.230301,239.648651 139.113068,240.941849 
	C134.428192,238.206253 128.941437,237.792725 123.668716,236.607986 
	C120.917740,235.989853 119.639397,234.811554 119.678558,231.941116 
	C119.767220,225.442780 119.764427,218.941025 119.652565,212.443161 
	C119.603180,209.574814 120.919205,208.295609 123.597954,207.647018 
	C127.637451,206.668945 131.537491,204.988907 135.613754,204.322495 
	C140.133514,203.583542 142.279770,201.359833 142.820694,196.900238 
	C143.158539,194.114777 143.663803,191.149078 144.950912,188.717972 
	C148.420563,182.164368 145.459778,177.845200 140.835968,173.514816 
	C132.604431,165.805618 132.713959,165.707443 139.240402,156.467621 
	C141.739273,152.929840 144.366669,149.461884 146.577942,145.749146 
	C148.100708,143.192398 149.773621,142.712311 152.312622,143.905869 
	C155.927704,145.605255 159.683167,147.034348 163.186432,148.933502 
	C165.635208,150.260971 167.291489,150.397537 169.066086,147.916077 
	C172.580002,143.002502 177.036484,138.948715 181.776428,135.253250 
	C184.199524,133.364090 184.827972,131.531570 183.926056,128.406052 
	C182.613388,123.857010 178.655014,118.738579 180.776825,114.867477 
	C182.686737,111.382950 188.349991,109.912354 192.417862,107.662132 
	C204.214020,101.136902 204.444397,100.968094 213.418137,111.275215 
	C216.533981,114.854042 219.196823,115.282455 223.235016,113.660851 
	C226.451508,112.369232 229.925812,111.138153 233.324661,111.022034 
	C238.110123,110.858551 239.303940,108.444405 240.190460,104.325577 
	C242.910904,91.686096 243.084793,91.723541 255.938217,91.655304 
	C257.604767,91.646454 259.271332,91.632004 260.937897,91.628983 
	C270.475525,91.611679 270.486603,91.610176 272.524750,100.989212 
	C272.877136,102.610786 273.195282,104.252975 273.345795,105.902374 
	C273.616669,108.870682 275.142792,110.469620 278.118988,110.618530 
	C282.666412,110.846062 287.011169,112.086945 291.185883,113.710480 
	C294.568359,115.025909 296.685730,114.044380 298.988159,111.520866 
	C309.189667,100.339752 309.243927,100.402794 322.462646,108.145470 
	C325.049286,109.660561 327.628357,111.213463 330.327972,112.504097 
	C333.358368,113.952850 334.284821,116.077377 332.607697,118.934662 
	C327.222687,128.109131 328.285858,135.584961 337.994507,141.082352 
	C339.112396,141.715332 339.921753,142.908752 340.841644,143.873291 
	C347.365387,150.713516 347.362701,150.716080 356.039337,146.306717 
	C363.786224,142.369858 363.837189,142.334030 368.824158,149.426773 
	C371.985016,153.922318 374.832458,158.642303 378.080627,163.070801 
	C379.925873,165.586563 380.064514,167.646072 377.469849,169.401581 
	C373.171783,172.309555 373.688232,176.811554 373.507935,181.007629 
	C373.387451,183.812088 375.818787,184.112946 377.792572,183.975449 
	C383.009796,183.612030 384.551208,186.195770 384.186676,190.946289 
	C383.919525,194.427841 384.283905,197.828506 385.393646,201.273285 
	C386.432281,204.497391 388.085632,206.578552 391.295166,207.302414 
	C394.518463,208.029373 395.530548,210.022064 395.335968,213.134506 
	C394.931061,219.611420 394.616425,226.095459 394.382843,232.580826 
	C394.291748,235.110107 392.974487,236.084106 390.674225,236.365082 
	C385.372986,237.012650 382.202820,238.714355 382.668976,245.413040 
	C383.174652,252.679276 380.419067,254.771469 372.797211,255.516769 
	C370.606964,255.730957 369.577911,257.046204 368.564758,258.568481 
	C367.276093,260.504639 368.915070,261.643372 369.925751,262.868744 
	C371.090607,264.281067 372.346527,265.623016 373.620178,266.940155 
	C379.647003,273.172729 379.694366,273.193420 374.709473,280.524719 
	C371.806213,284.794464 368.615234,288.872925 365.811890,293.204498 
	C364.160767,295.755646 362.397156,295.955719 359.951904,294.632477 
	C356.436371,292.730072 352.791931,291.056305 349.341339,289.046570 
	C346.608246,287.454742 344.517548,287.550262 342.362732,290.065948 
	C339.098297,293.877228 335.105560,296.930634 331.094849,299.914734 
	C328.958679,301.504120 328.117126,303.234375 329.100525,305.908203 
	C329.956879,308.236603 330.080078,310.854797 331.060974,313.113129 
	C333.223206,318.091003 333.892059,322.456299 328.384705,325.829163 
	C326.630615,326.903473 326.279297,328.805206 327.645050,330.623657 
	C328.589081,331.880585 329.011414,333.299164 329.077057,334.814911 
	C329.283813,339.586456 332.723602,339.129547 335.958588,339.382202 
z"/>
<path fill="#000000" opacity="1.000000" stroke="none" 
	d="
M157.660767,199.309540 
	C161.877243,197.479416 165.904190,196.701965 170.140549,196.698593 
	C202.131393,196.673096 234.122192,196.591522 266.113007,196.522415 
	C266.955200,196.520599 267.784515,196.500580 268.785187,197.847229 
	C259.614624,219.287262 244.886703,238.026459 233.790878,259.733795 
	C242.574615,258.700104 250.693420,257.744659 260.647736,256.573181 
	C256.151031,265.878540 252.289673,273.869141 248.162659,282.409515 
	C246.747482,280.127533 247.611496,278.931458 248.087326,277.753479 
	C249.502289,274.250519 249.628876,270.771545 247.012787,267.894928 
	C244.283600,264.893951 240.461853,265.566650 237.145721,266.384338 
	C230.421204,268.042572 226.259613,274.580261 226.431030,281.532928 
	C226.501923,284.408661 225.541245,287.309814 224.992767,290.534180 
	C220.040649,289.398712 216.102234,287.808807 214.733017,282.695648 
	C214.030319,280.071472 212.928207,277.610352 210.373795,276.257782 
	C206.951508,274.445679 204.650543,271.980713 203.936172,267.948700 
	C203.292023,264.313171 199.435501,265.172333 196.747314,263.637299 
	C204.856323,261.728180 209.862015,256.215729 213.880905,249.812744 
	C215.761673,246.816284 217.869690,245.788498 221.232330,246.021042 
	C224.207504,246.226791 227.221497,245.782654 230.216797,245.808136 
	C234.197861,245.841965 235.540436,243.893555 234.942535,240.009995 
	C230.990707,238.647385 226.972672,239.231522 223.047485,239.249741 
	C219.415436,239.266586 217.698883,238.324005 217.564377,234.205399 
	C217.113022,220.385971 206.324265,209.786285 191.846359,208.446045 
	C179.632889,207.315399 167.534744,216.708984 164.669952,229.606583 
	C164.384842,230.890182 164.213806,232.277145 164.375214,233.567932 
	C164.965561,238.288818 162.517883,239.162476 158.448456,238.943024 
	C147.542603,238.354950 147.530762,238.455338 147.572647,227.534897 
	C147.588623,223.369431 147.385147,219.182343 147.735977,215.043640 
	C148.304535,208.336365 151.566101,203.101059 157.660767,199.309540 
M230.696793,254.416199 
	C230.606522,251.057266 228.268188,250.436462 225.631882,250.463577 
	C223.591843,250.484528 221.666077,251.195328 220.811600,253.241119 
	C220.101898,254.940277 221.312012,256.090790 222.611603,256.835846 
	C225.053818,258.235901 227.557343,258.554352 229.827774,256.414490 
	C230.167099,256.094727 230.319183,255.576309 230.696793,254.416199 
M220.708008,212.629166 
	C223.653915,212.566345 224.929398,210.883453 224.801956,208.126297 
	C224.707565,206.084229 223.547638,204.662857 221.473587,204.325699 
	C219.436768,203.994598 217.802475,204.885513 216.969254,206.731522 
	C215.571152,209.829025 217.574371,211.322495 220.708008,212.629166 
M157.491669,210.105896 
	C158.719528,212.461517 160.134094,214.703415 163.198746,212.758453 
	C164.770004,211.761292 165.847946,210.109497 165.191360,208.058838 
	C164.645172,206.352890 163.428528,205.112961 161.528442,205.221252 
	C159.009537,205.364807 157.670792,206.906616 157.491669,210.105896 
z"/>
<path fill="#000000" opacity="1.000000" stroke="none" 
	d="
M282.143005,175.323822 
	C283.331787,171.745926 280.994843,167.326401 283.598206,165.424774 
	C286.398041,163.379578 290.700745,164.915741 294.341461,164.729553 
	C295.670654,164.661591 297.021454,164.851959 298.336731,164.700912 
	C311.735504,163.162292 322.320892,168.341278 331.159363,178.084518 
	C334.569519,181.843735 338.380951,185.238937 342.048004,188.837692 
	C340.105194,190.966507 338.163971,190.276443 336.463837,190.284180 
	C322.470490,190.347809 308.476166,190.393280 294.483490,190.279343 
	C290.537109,190.247223 288.451874,191.538315 288.939606,195.756744 
	C290.509064,197.275833 292.451477,196.735321 294.190247,196.739853 
	C307.849854,196.775421 321.509918,196.658981 335.169403,196.708344 
	C344.322266,196.741409 353.438446,198.138901 362.609344,197.587845 
	C365.939911,197.387711 367.404449,198.594803 367.394836,202.142838 
	C367.370514,211.131470 367.754425,220.120651 367.779572,229.110168 
	C367.803070,237.528076 361.445862,241.427872 353.430634,238.190186 
	C351.521057,237.418823 351.804993,235.910568 351.680603,234.482956 
	C350.462891,220.507233 340.919861,210.447708 327.004486,208.493591 
	C315.653900,206.899643 304.081970,214.465652 299.342926,226.429550 
	C298.258331,229.167725 298.160767,231.947708 298.236084,234.770187 
	C298.304199,237.325363 297.477600,239.144760 294.693420,239.118546 
	C283.355011,239.011917 272.106506,240.251144 260.835693,241.186768 
	C260.227631,241.237244 259.586273,240.886322 258.374176,240.568588 
	C261.015778,232.749283 263.476929,225.078247 266.197845,217.500488 
	C270.303955,206.064896 274.829437,194.790726 280.458954,184.004669 
	C281.845093,181.348877 281.690491,178.528427 282.143005,175.323822 
M300.357208,173.995255 
	C298.201721,174.051056 296.043427,174.057358 293.891693,174.179520 
	C292.379089,174.265381 291.417358,175.030380 291.410553,176.688431 
	C291.404175,178.240479 292.112793,179.335114 293.665985,179.454987 
	C297.507996,179.751419 301.270203,179.129608 304.939514,178.019226 
	C305.925659,177.720795 306.677612,176.969467 306.482910,175.778183 
	C306.328796,174.835312 305.576324,174.405594 304.722046,174.289322 
	C303.574219,174.133087 302.409515,174.100723 300.357208,173.995255 
M360.423889,212.157135 
	C360.793762,209.843918 359.593170,207.989777 358.580170,206.112915 
	C357.410248,203.945282 355.787720,202.772507 353.340149,204.369751 
	C351.156311,205.794922 350.638519,207.952713 351.969391,209.966858 
	C353.837433,212.793900 356.152740,215.407181 360.423889,212.157135 
z"/>
<path fill="#000000" opacity="1.000000" stroke="none" 
	d="
M186.999588,377.196533 
	C177.181900,376.926361 167.859589,377.430573 158.540817,376.477966 
	C136.307861,374.205048 116.062149,352.465607 115.835999,330.016266 
	C115.641319,310.692413 115.799850,291.365051 115.773552,272.039307 
	C115.766350,266.745209 117.965523,261.457825 114.112991,256.207123 
	C112.359741,253.817581 113.681206,249.925568 116.328239,247.632416 
	C118.438866,245.804001 121.079178,245.901550 123.361763,247.233139 
	C126.397148,249.003860 127.834366,252.207916 126.964439,255.356110 
	C125.810547,259.531982 126.041672,263.596008 126.397957,267.698517 
	C128.189560,288.327515 127.125206,308.983307 127.012543,329.624146 
	C126.911942,348.054688 142.253815,364.907501 160.732849,365.780731 
	C184.697266,366.913116 208.670349,366.507812 232.656265,366.333069 
	C251.604706,366.195038 270.576202,365.505768 289.542114,366.402252 
	C298.672668,366.833801 307.841339,366.690521 316.985535,366.485535 
	C320.497620,366.406769 321.607544,367.792236 321.007904,370.892426 
	C320.507904,373.477509 322.825317,377.349915 316.951477,377.321869 
	C273.801636,377.115753 230.650391,377.202942 186.999588,377.196533 
z"/>
<path fill="#000000" opacity="1.000000" stroke="none" 
	d="
M352.190338,319.915619 
	C356.482574,317.244965 360.866730,317.844391 365.174225,318.008087 
	C377.398682,318.472656 383.311646,313.174377 384.126312,300.966675 
	C384.549744,294.621368 391.163910,285.839447 396.021301,285.173096 
	C403.586273,284.135315 411.024780,288.859894 414.321686,296.106140 
	C416.710266,301.356079 417.270905,305.850250 413.644287,310.986511 
	C409.549530,316.785736 411.227112,323.678650 416.863434,328.105560 
	C417.645508,328.719818 418.533417,329.199036 419.370819,329.743103 
	C427.266815,334.873108 427.388245,336.814819 419.910950,342.323822 
	C420.388397,343.750519 420.895111,345.264709 421.394745,346.757721 
	C417.661469,348.468353 399.729248,349.019867 392.212311,347.724121 
	C391.142548,345.902740 391.430634,343.794250 391.721832,341.929718 
	C393.589355,329.971191 381.728119,325.116302 372.771149,327.267334 
	C370.576874,327.794312 369.106323,328.933990 369.299072,331.384430 
	C369.467560,333.525574 368.321808,334.601959 366.440460,334.692596 
	C357.556946,335.120514 348.576447,334.748138 339.548279,338.250244 
	C346.600525,333.879028 345.953888,324.878418 352.190338,319.915619 
z"/>
<path fill="#000000" opacity="1.000000" stroke="none" 
	d="
M343.896362,346.689880 
	C351.981689,341.905884 360.555786,342.617645 369.033813,342.674469 
	C371.495453,342.690979 373.871307,343.043854 375.123596,339.774017 
	C376.030975,337.404816 378.669952,338.883850 380.542664,338.787262 
	C382.568420,338.682770 383.637787,339.983978 383.907013,341.787537 
	C384.200287,343.752197 384.295959,345.762085 384.296722,347.752289 
	C384.302887,364.413116 384.282349,381.073975 384.225281,397.734680 
	C384.218231,399.788483 384.960114,402.592621 381.938751,403.002197 
	C379.344055,403.353912 376.112488,404.606232 374.318237,401.296783 
	C373.106232,399.061279 371.266632,399.153320 369.206543,399.187012 
	C363.888184,399.273956 358.560333,399.755249 353.263184,398.724915 
	C340.121857,396.168701 331.011017,387.748932 328.886414,376.118774 
	C326.787048,364.627045 332.089844,354.064911 343.896362,346.689880 
M371.637329,388.533508 
	C374.935913,386.948944 374.286774,383.811035 374.323792,381.129517 
	C374.392365,376.152283 374.038818,371.170776 374.022186,366.190521 
	C373.973114,351.502991 374.003937,351.502930 359.345276,352.325104 
	C349.592133,352.872162 340.985138,360.207397 340.063995,368.757446 
	C339.064270,378.037445 344.645935,384.796326 355.466736,387.730865 
	C360.548279,389.108917 365.663422,388.824860 371.637329,388.533508 
z"/>
<path fill="#000000" opacity="1.000000" stroke="none" 
	d="
M262.529663,190.342926 
	C256.423584,190.311493 250.708725,190.763474 245.106995,190.161850 
	C233.896408,188.957809 222.755051,189.284088 211.577133,190.271194 
	C209.823074,190.426102 207.922409,190.695801 206.169434,189.639664 
	C205.879211,187.332855 207.864777,186.511749 209.151215,185.463211 
	C215.604019,180.203766 222.069107,174.947403 228.739746,169.971252 
	C233.519348,166.405746 239.057465,164.691940 245.102173,164.724014 
	C253.430878,164.768219 261.762604,164.838303 270.087952,164.659500 
	C274.020050,164.575043 275.480316,166.198807 275.309967,170.008026 
	C274.994415,177.064636 276.691895,184.435471 271.787079,190.707489 
	C270.785217,191.988602 270.173737,193.632401 268.297455,194.439331 
	C266.615570,192.954498 266.357178,189.444977 262.529663,190.342926 
M232.122726,179.557510 
	C231.140625,180.949127 228.934143,181.814301 229.946426,184.077591 
	C230.444199,185.190567 231.562531,185.725159 232.779526,185.837067 
	C234.666931,186.010620 236.030334,184.877167 236.931915,183.524643 
	C239.760941,179.280533 243.694138,178.088760 248.529663,178.638260 
	C250.655304,178.879822 252.830124,178.682938 254.982559,178.695389 
	C258.070953,178.713257 259.941040,177.436325 260.099304,173.902695 
	C255.725098,172.839218 251.417297,173.692993 247.199738,173.279083 
	C241.288193,172.698944 236.484360,174.636017 232.122726,179.557510 
z"/>
<path fill="#000000" opacity="1.000000" stroke="none" 
	d="
M320.587799,215.950287 
	C339.619446,213.382751 348.756348,230.664780 342.606873,244.549774 
	C338.805237,253.133560 330.292816,257.014038 320.139893,255.205963 
	C312.536011,253.851822 306.644989,247.433029 305.647552,239.415222 
	C304.364014,229.097534 308.656921,220.537094 316.854767,217.134827 
	C317.925262,216.690552 319.062256,216.406387 320.587799,215.950287 
M332.569733,232.017120 
	C329.066010,227.091400 325.001678,225.716446 320.879425,228.062286 
	C316.801422,230.382965 315.270844,234.951126 317.166412,239.143768 
	C319.131989,243.491104 323.282532,245.585922 327.196411,244.205978 
	C332.072693,242.486710 334.198029,238.159164 332.569733,232.017120 
z"/>
<path fill="#000000" opacity="1.000000" stroke="none" 
	d="
M209.208099,228.309372 
	C212.005188,238.264465 209.159210,247.591599 202.116669,252.302429 
	C195.327316,256.843872 185.376877,256.656860 179.133423,251.870483 
	C172.385040,246.697067 169.721695,238.015213 172.254440,229.446777 
	C174.426422,222.098785 181.275391,216.261581 188.397324,215.688553 
	C198.146942,214.904099 204.802811,218.834030 209.208099,228.309372 
M182.375504,234.043579 
	C181.807236,238.274216 183.316101,241.513092 187.072052,243.583786 
	C189.760651,245.066055 192.515610,245.104080 195.006119,243.200592 
	C197.886398,240.999191 200.113632,238.282715 199.035309,234.346512 
	C198.014572,230.620560 195.888977,227.737976 191.670700,227.266022 
	C186.997650,226.743210 184.216721,229.215317 182.375504,234.043579 
z"/>
<path fill="#000000" opacity="1.000000" stroke="none" 
	d="
M404.624390,381.867249 
	C396.571930,386.652161 391.694275,384.138977 391.655121,375.565552 
	C391.633118,370.744293 391.731964,365.921234 391.629028,361.102112 
	C391.573090,358.483948 392.486816,357.064941 395.245422,356.867584 
	C403.573425,356.271759 411.864716,357.012787 420.115082,357.830200 
	C423.431915,358.158783 424.323242,361.807434 425.505554,364.465027 
	C426.574646,366.868103 424.940918,368.511322 423.145447,369.922791 
	C420.920166,371.672119 418.745422,373.417236 415.837555,374.022308 
	C411.153412,374.996979 408.737640,379.343933 404.624390,381.867249 
z"/>
<path fill="#000000" opacity="1.000000" stroke="none" 
	d="
M278.433228,269.623474 
	C275.441559,268.443726 272.711975,268.017517 270.135803,268.601074 
	C268.848114,266.045197 270.118195,264.476105 271.010498,263.004974 
	C272.729034,260.171570 274.970978,257.635254 276.517883,254.721970 
	C281.118378,246.057877 288.613953,244.887482 297.265381,246.137344 
	C301.468719,246.744614 302.187500,249.899033 303.141724,253.145233 
	C296.678802,254.115509 296.336456,254.572479 297.571167,260.268311 
	C299.693054,270.056549 297.129730,272.958221 286.972626,271.853455 
	C284.207916,271.552765 281.528351,270.469666 278.433228,269.623474 
z"/>
<path fill="#000000" opacity="1.000000" stroke="none" 
	d="
M429.286438,355.719788 
	C430.168457,356.911652 431.829437,357.392853 430.954926,359.374542 
	C428.004761,358.158600 426.341034,355.918549 424.441162,353.206848 
	C427.270966,352.682861 427.836273,354.621735 429.286438,355.719788 
z"/>
</svg>